# xmcd CD database file
#
# Track frame offsets:
#	150
#	26298
#	52789
#	81427
#	109323
#	135849
#	163526
#	186712
#	213171
#	236844
#	267570
#
# Disc length: 3860 seconds
#
# Revision: 0
# Processed by: cddbd v1.5.1PL0 Copyright (c) Steve Scherf et al.
# Submitted via: CDex 1.50
#
DISCID=950f120b
DTITLE=Pierre Sibille - Live au Satellit'café
DYEAR=1900
DGENRE=Blues
TTITLE0=I'm in a mood
TTITLE1=Groove me
TTITLE2=Yellow moon
TTITLE3=I want to ta'ta'you babe
TTITLE4=Hey pocky a way
TTITLE5=Sugar free love
TTITLE6=Patience
TTITLE7=I've got dreams
TTITLE8=Lonely avenue
TTITLE9=Reve
TTITLE10=Signed sealed, delivered i'm yours
EXTD=
EXTT0=
EXTT1=
EXTT2=
EXTT3=
EXTT4=
EXTT5=
EXTT6=
EXTT7=
EXTT8=
EXTT9=
EXTT10=
PLAYORDER=
